<svg xmlns="http://www.w3.org/2000/svg" viewBox="0 0 420.76 392.53"><defs><style>.cls-1{fill:#51f2ff;}.cls-2,.cls-3{fill:#fff;}.cls-2{stroke:#000;stroke-miterlimit:10;stroke-width:0.5px;}</style></defs><g id="Layer_2" data-name="Layer 2"><rect width="420.76" height="392.53" rx="25.06"/></g><g id="Layer_1" data-name="Layer 1"><path class="cls-1" d="M24.68,208.21C18.56,201.13,12.82,194.46,7,187.84c-2.22-2.54-.27-3.74,1.42-5.2q34.07-29.34,68.09-58.72L204.77,13.33c5.33-4.6,5.28-4.54,10.47-.07Q292.77,80.16,370.34,147q20.43,17.61,40.81,35.28c1.11,1,2.14,2,3.6,3.38-6.45,7.5-12.71,14.77-19.34,22.45-1.62-1.25-3.07-2.26-4.4-3.41q-76.61-66-153.18-132.12c-8-6.86-16-13.57-23.81-20.6-2.94-2.66-4.88-2.73-7.94-.06q-41.09,35.73-82.4,71.2Q76.4,163.9,29.09,204.65C27.84,205.72,26.53,206.72,24.68,208.21Z"/><path class="cls-1" d="M210.15,75.86,254.58,113q51.54,43.08,103.12,86.15c2.88,2.4,4.41,4.79,4.36,8.8q-1.17,85.21-1.92,170.42c-.05,4.85-1.71,6.43-6.43,6.15a177,177,0,0,0-18-.06c-4.23.19-5.23-1.39-5.2-5.5.42-50.47.58-101,1-151.43,0-5.14-1.45-8.53-5.39-11.91q-56-47.86-111.61-96.19c-3.47-3-5.5-3.12-9.05,0C167,153,128.29,186.39,89.76,220c-3.48,3-5.66,3.58-8.68-.44a183.88,183.88,0,0,0-12.94-15.21c-2.6-2.76-1.86-4.23.64-6.38q43.13-37.16,86.13-74.48L206.28,79C207.4,78.05,208.57,77.14,210.15,75.86ZM353,330.93c0-7.81,0-15.62,0-23.43,0-9,0-8.79-8.84-8.93-4.27-.07-5.36,1.56-5.33,5.54.15,17.61.17,35.23,0,52.84-.05,4.32,1.29,6.25,5.68,5.65a14.7,14.7,0,0,1,2,0c6.36,0,6.5-.08,6.51-6.26C353,347.88,353,339.41,353,330.93Zm-6.91,46.65c6.84,0,6.62-.08,7-6.28.31-5.21-2.2-6-6.55-5.81-7.61.24-7.62.05-7.64,6.09S338.94,377.57,346.09,377.58Z"/><path class="cls-2" d="M266.65,335.6c1.4-9.67,2.77-19.34,4.2-29,1.27-8.67,0-7.54,8.66-7.58,12-.06,12,0,12,12,0,20.15-.22,40.31.14,60.46.1,6-3.08,5.6-7.13,5.73-4.28.13-6.35-.78-6.11-5.75.42-8.8.12-17.65.13-26.48v-5.19l-1.33-.11q-2,11.43-4,22.85a84.56,84.56,0,0,0-1.43,8.88c-.3,4.68-2.56,6.17-7.12,5.82-3.08-.24-4.35-1.29-4.89-4.31C258,363.08,256,353.3,254,343.51a6.59,6.59,0,0,0-2.33-4.14v11c0,7.49-.19,15,.07,22.48.17,4.91-3,4.19-6,4.23s-5.57.45-5.54-4.09c.17-23.32.13-46.64,0-70,0-3,.91-4,4-4.12,14.8-.52,14.79-.61,17.15,13.72q1.92,11.53,3.89,23.07Z"/><path class="cls-1" d="M147.84,212.05c-3.67-4-7.52-8.35-11.52-12.55-2.66-2.78-.21-4.15,1.41-5.62,12.05-10.89,25.78-19.07,41.39-23.42,38-10.57,72.17-2.83,102.29,22.59,4.84,4.08,4.61,4.14.16,8.8-3.21,3.36-6.11,7-9,10.43C230.56,178.61,189.76,178.61,147.84,212.05Z"/><path class="cls-1" d="M66,105c-.13-1.66-.35-3.11-.35-4.56,0-20.32.11-40.64,0-60.95,0-4.19,1.32-5.43,5.42-5.36,13,.23,26,.2,39,0,3.68-.05,5,1.12,4.92,4.86-.21,7.48.08,15-.14,22.47,0,1.8-.77,4.15-2,5.23-15.07,12.84-30.3,25.49-45.5,38.17C67.13,105,66.91,105,66,105Z"/><path class="cls-2" d="M197.21,299c.13,2.18.31,3.79.31,5.4,0,7-.12,14,.1,21,0,1.61,1.31,3.18,2,4.76.69-1.59,1.92-3.16,2-4.77.23-7.15.27-14.31.08-21.46-.1-3.54.76-5.08,4.69-4.95,11.51.37,9.69-1.5,9.73,9.77.09,20.81-.07,41.61.11,62.41,0,4.29-.75,6.3-5.68,6.09-10.07-.42-8.65.94-8.77-8.88-.1-8.15.1-16.31-.11-24.46,0-1.38-1.44-2.73-2.22-4.1-.63,1.32-1.79,2.62-1.81,3.95-.16,9.48-.22,19,0,28.46.07,3.55-.79,5.11-4.69,5-11.7-.3-9.84,1.1-9.89-9.75-.1-20.8.12-41.61-.13-62.41-.05-4.77,1.26-6.69,6.11-6.09A69.5,69.5,0,0,0,197.21,299Z"/><path class="cls-2" d="M141,377.05c-4.24,0-7.9.3-11.45-.17-1.15-.15-2.64-2.22-2.91-3.62-.82-4.4-1.19-8.9-1.64-13.37-.26-2.51-1.26-4.48-4-3.59a5.88,5.88,0,0,0-3.51,3.49,101.4,101.4,0,0,0-1.76,13.35c-.23,2.93-1.42,4-4.37,4-12.4-.11-10.41.84-8.94-10,2.87-21.1,5.95-42.18,8.72-63.3.49-3.71,1.69-5.4,5.59-4.93a30.2,30.2,0,0,0,7.48,0c4.76-.64,6.6,1.08,7.22,6,2.83,22.45,6.09,44.85,9.18,67.27C140.77,373.5,140.82,374.82,141,377.05Zm-19.25-47.59h-1.34c-.39,4.48-.88,9-1.08,13.46,0,.73,1.2,1.52,1.84,2.29.64-.77,1.87-1.58,1.83-2.31C122.74,338.41,122.2,333.94,121.75,329.46Z"/><path class="cls-2" d="M164.69,346.68c13-2.28,13.23-2.07,13.22,9.79,0,2.5,0,5,0,7.5-.15,7.37-3.7,12.11-11,13.18a34.15,34.15,0,0,1-12.77-.72,10.13,10.13,0,0,1-8.06-10.25c-.12-18.65-.17-37.32.13-56a10.94,10.94,0,0,1,9.76-11c4.36-.65,9.21-1,13.25.27,3.1,1,6.75,4.44,7.57,7.49,1.42,5.33,1,11.19,1,16.84,0,.77-1.56,2.16-2.48,2.24-3.27.27-6.57.11-10.6.11,0-4.91.14-9.2-.09-13.47-.07-1.22-1.2-2.38-1.84-3.57-.8,1.19-2.28,2.38-2.29,3.58q-.24,25.24,0,50.49c0,1.22,1.45,2.43,2.22,3.65.68-1.32,1.89-2.62,2-4C164.82,357.55,164.69,352.24,164.69,346.68Z"/><path class="cls-1" d="M256,229c-4.65,4.14-9,8.22-13.63,11.95-.8.65-3.26.36-4.15-.41-15.21-13.14-39.72-13.91-56.18,0-.9.76-3.34,1-4.15.36-4.63-3.72-9-7.78-13.32-11.61C183.86,206.21,228,200,256,229Z"/><path class="cls-2" d="M324.85,308.82c-3.35,0-6.32.12-9.27,0s-4.29.86-4.18,4c.14,4.48.11,9,0,13.47-.08,3,1.07,4.35,4.1,4.08,1.16-.1,2.34.1,3.49,0,3.47-.39,5.13.59,5.09,4.58,0,3.69-1.11,5.27-4.86,4.78-1.31-.17-2.67.07-4,0-2.81-.26-3.86,1-3.82,3.74.11,6.82.08,13.64,0,20.46,0,2.58,1.11,3.57,3.62,3.48,3.13-.1,6.26,0,9.69,0,.24,1.73.39,3,.59,4.25.68,4.28-.91,6-5.43,5.7-6.14-.36-12.31-.21-18.46-.05-3.1.07-4.46-.81-4.44-4.2q.15-34.93,0-69.86c0-3.42,1.39-4.23,4.47-4.14,5.82.17,11.64,0,17.47,0,6.59,0,6.6,0,6.36,6.57C325.23,306.37,325.06,307.18,324.85,308.82Z"/><path class="cls-2" d="M95.07,339.24a13,13,0,0,1-1.69.32C83.21,340,83.21,340,83.21,350c0,4.5.09,9,0,13.5-.07,2.75,1,3.94,3.8,3.81,3.27-.15,6.55,0,9.92,0,.17,1.93.21,3.08.39,4.21.69,4.32-.94,6-5.44,5.74-6.31-.34-12.66-.23-19-.05-3,.09-4.19-1-4.18-4q.09-35.25,0-70.5c0-2.84,1.16-3.76,3.91-3.71,6.83.13,13.67.2,20.5,0,3.74-.13,4,1.91,3.91,4.71s.36,5.19-3.89,5.27c-9.94.19-9.94.39-9.93,10.5v1.5c0,8.87,0,8.87,8.72,9.37C96.12,330.52,96.56,331.71,95.07,339.24Z"/><path class="cls-2" d="M55.53,342.48c0,9.83-.14,19.66.06,29.49.08,3.82-1,5.32-5.08,5.21-10.93-.3-9.37,1-9.4-9.25-.06-17.83-.1-35.66.06-53.48,0-3.79-.51-6-5.05-5.61s-3.09-3.24-3.34-5.62c-.28-2.73.41-4.38,3.75-4.3q11.74.29,23.49,0c3.54-.08,3.71,2,3.55,4.5s.95,5.87-3.55,5.42c-4-.41-4.6,1.74-4.54,5.13C55.64,323.49,55.53,333,55.53,342.48Z"/><path class="cls-1" d="M226.15,263.73a16.07,16.07,0,0,1-16,16.25,16.21,16.21,0,1,1-.17-32.41A16.19,16.19,0,0,1,226.15,263.73Z"/><path class="cls-3" d="M199.06,336.65c6.44,0,6.45-10,0-10s-6.44,10,0,10Z"/><path class="cls-3" d="M199.94,343.67c6.44,0,6.45-10,0-10s-6.44,10,0,10Z"/><path class="cls-3" d="M201.7,336.65c6.43,0,6.44-10,0-10s-6.45,10,0,10Z"/><path class="cls-3" d="M197.31,336.65c6.43,0,6.45-10,0-10s-6.45,10,0,10Z"/><path class="cls-3" d="M203.45,343.67c6.44,0,6.45-10,0-10s-6.44,10,0,10Z"/><path class="cls-3" d="M202.57,343.67c6.44,0,6.45-10,0-10s-6.44,10,0,10Z"/><path class="cls-3" d="M197.31,343.67c6.43,0,6.45-10,0-10s-6.45,10,0,10Z"/><path class="cls-3" d="M121,353.31c6.44,0,6.45-10,0-10s-6.44,10,0,10Z"/><path class="cls-3" d="M123.63,353.31c6.43,0,6.44-10,0-10s-6.45,10,0,10Z"/><path class="cls-3" d="M118.36,353.31c6.44,0,6.45-10,0-10s-6.44,10,0,10Z"/><path class="cls-3" d="M121.87,356.82c6.44,0,6.45-10,0-10s-6.44,10,0,10Z"/><path class="cls-3" d="M118.36,356.82c6.44,0,6.45-10,0-10s-6.44,10,0,10Z"/><path class="cls-3" d="M124.5,356.82c6.44,0,6.45-10,0-10s-6.44,10,0,10Z"/><path class="cls-3" d="M119.24,356.82c6.43,0,6.45-10,0-10s-6.45,10,0,10Z"/><path class="cls-3" d="M124.5,356.82c6.44,0,6.45-10,0-10s-6.44,10,0,10Z"/><path class="cls-3" d="M126.26,357.7c6.43,0,6.44-10,0-10s-6.45,10,0,10Z"/><path class="cls-3" d="M162.22,375.24c6.44,0,6.45-10,0-10s-6.44,10,0,10Z"/><path class="cls-3" d="M164.85,375.24c6.44,0,6.45-10,0-10s-6.44,10,0,10Z"/><path class="cls-3" d="M160.47,375.24c6.43,0,6.44-10,0-10s-6.45,10,0,10Z"/><path class="cls-3" d="M161.35,311.21c6.43,0,6.44-10,0-10s-6.45,10,0,10Z"/><path class="cls-3" d="M164,311.21c6.43,0,6.44-10,0-10s-6.45,10,0,10Z"/><path class="cls-3" d="M129.77,361.21c6.43,0,6.44-10,0-10s-6.45,10,0,10Z"/><path class="cls-3" d="M128.89,360.33c6.43,0,6.44-10,0-10s-6.45,10,0,10Z"/><path d="M175.38,346.3c6.43,0,6.45-10,0-10s-6.44,10,0,10Z"/><path d="M173.63,346.3c6.43,0,6.44-10,0-10s-6.45,10,0,10Z"/><path d="M171,346.3c6.44,0,6.45-10,0-10s-6.44,10,0,10Z"/><path d="M167.49,347.17c6.43,0,6.44-10,0-10s-6.45,10,0,10Z"/><path d="M169.24,347.17c6.43,0,6.45-10,0-10s-6.45,10,0,10Z"/><path d="M171,347.17c6.44,0,6.45-10,0-10s-6.44,10,0,10Z"/><path d="M173.63,347.17c6.43,0,6.44-10,0-10s-6.45,10,0,10Z"/><path d="M174.5,347.17c6.44,0,6.45-10,0-10s-6.44,10,0,10Z"/><path d="M176.26,347.17c6.43,0,6.44-10,0-10s-6.45,10,0,10Z"/><path d="M176.26,347.17c6.43,0,6.44-10,0-10s-6.45,10,0,10Z"/><path d="M165.73,347.17c6.44,0,6.45-10,0-10s-6.44,10,0,10Z"/></g></svg>