<svg id="Layer_1" data-name="Layer 1" xmlns="http://www.w3.org/2000/svg" viewBox="0 0 408.72 374.63"><defs><style>.cls-1{fill:#51f2ff;}.cls-2{fill:#fff;stroke:#000;stroke-miterlimit:10;stroke-width:0.5px;}</style></defs><path class="cls-1" d="M18.65,198.31C12.52,191.24,6.78,184.57,1,177.94c-2.22-2.54-.26-3.74,1.43-5.19Q36.49,143.41,70.51,114L198.74,3.43c5.33-4.59,5.28-4.53,10.46-.06q77.55,66.89,155.11,133.74,20.43,17.61,40.8,35.28c1.11,1,2.15,2,3.61,3.39l-19.34,22.45c-1.62-1.25-3.07-2.27-4.4-3.42q-76.61-66-153.19-132.12c-7.94-6.85-16-13.56-23.8-20.6-3-2.66-4.89-2.72-8-.06Q159,77.78,117.65,113.23,70.36,154,23.05,194.76C21.81,195.83,20.5,196.82,18.65,198.31Z"/><path class="cls-1" d="M204.12,66l44.43,37.12q51.54,43.1,103.11,86.15c2.88,2.4,4.42,4.8,4.36,8.81q-1.15,85.2-1.92,170.41c0,4.86-1.7,6.43-6.43,6.15a176.77,176.77,0,0,0-18-.06c-4.23.19-5.24-1.38-5.2-5.49.42-50.48.58-101,1-151.44.05-5.14-1.44-8.53-5.39-11.9q-56-47.88-111.61-96.19c-3.47-3-5.49-3.13-9,0-38.51,33.61-77.22,67-115.76,100.57-3.48,3-5.65,3.58-8.68-.44a183.47,183.47,0,0,0-12.93-15.21c-2.6-2.76-1.86-4.23.63-6.38q43.14-37.15,86.14-74.47l51.36-44.45C201.36,68.15,202.54,67.24,204.12,66ZM347,321c0-7.81,0-15.62,0-23.43,0-9,0-8.79-8.84-8.94-4.27-.07-5.37,1.57-5.33,5.54.14,17.62.17,35.23,0,52.85,0,4.31,1.29,6.24,5.68,5.64a13.26,13.26,0,0,1,2,0c6.35,0,6.49-.08,6.51-6.27Q347,333.76,347,321Zm-6.9,46.65c6.84,0,6.62-.09,7-6.29.3-5.21-2.2-5.95-6.56-5.81-7.61.25-7.61.05-7.64,6.1S332.91,367.68,340.06,367.69Z"/><path class="cls-2" d="M260.62,325.7c1.4-9.67,2.77-19.34,4.19-29,1.28-8.67,0-7.54,8.67-7.58,12-.06,12,0,12,12,0,20.16-.23,40.32.13,60.47.11,6-3.07,5.59-7.13,5.72-4.28.14-6.34-.78-6.1-5.74.41-8.81.12-17.65.12-26.48v-5.2l-1.33-.1q-2,11.42-4,22.85a84,84,0,0,0-1.44,8.87c-.3,4.69-2.55,6.18-7.11,5.82-3.08-.24-4.35-1.29-4.89-4.31C252,353.19,250,343.4,248,333.61a6.61,6.61,0,0,0-2.34-4.14v11c0,7.5-.18,15,.08,22.49.17,4.9-3,4.19-6,4.22s-5.57.46-5.54-4.09c.17-23.32.12-46.64,0-70,0-3,.9-4,4-4.13,14.8-.52,14.78-.6,17.15,13.72,1.27,7.69,2.59,15.38,3.88,23.07Z"/><path class="cls-1" d="M141.81,202.16c-3.67-4-7.52-8.36-11.52-12.55-2.66-2.79-.22-4.15,1.41-5.62,12.05-10.89,25.77-19.08,41.39-23.42,38-10.57,72.16-2.84,102.29,22.58,4.84,4.08,4.6,4.14.16,8.8-3.21,3.37-6.11,7-9.05,10.43C224.53,168.71,183.72,168.71,141.81,202.16Z"/><path class="cls-1" d="M60,95.14c-.14-1.66-.36-3.11-.36-4.56,0-20.32.12-40.63,0-60.95,0-4.18,1.32-5.42,5.43-5.35,13,.22,26,.19,39,0,3.67,0,5,1.13,4.92,4.86-.21,7.49.07,15-.15,22.48,0,1.79-.76,4.14-2,5.23C91.64,69.7,76.4,82.35,61.21,95,61.1,95.12,60.88,95.07,60,95.14Z"/><path class="cls-2" d="M191.18,289.08c.13,2.17.31,3.79.31,5.4,0,7-.13,14,.09,21,0,1.61,1.32,3.18,2,4.77.69-1.59,1.92-3.17,2-4.78.23-7.15.27-14.31.07-21.46-.09-3.53.77-5.08,4.69-5,11.51.37,9.69-1.49,9.74,9.78.09,20.8-.07,41.6.1,62.41,0,4.29-.74,6.29-5.68,6.09-10.06-.42-8.65.93-8.76-8.88-.1-8.16.1-16.32-.11-24.47,0-1.38-1.45-2.73-2.22-4.1-.63,1.32-1.79,2.63-1.82,3.95-.15,9.49-.21,19,0,28.46.07,3.55-.8,5.11-4.69,5-11.7-.29-9.84,1.1-9.89-9.74-.1-20.81.11-41.61-.13-62.41-.06-4.78,1.26-6.69,6.1-6.1A69.55,69.55,0,0,0,191.18,289.08Z"/><path class="cls-2" d="M135,367.16c-4.24,0-7.9.3-11.46-.18-1.14-.15-2.64-2.22-2.9-3.62-.83-4.4-1.19-8.9-1.65-13.37-.25-2.51-1.25-4.48-4-3.59a5.89,5.89,0,0,0-3.51,3.5,99.34,99.34,0,0,0-1.77,13.35c-.23,2.92-1.41,4-4.36,4-12.4-.11-10.41.83-8.94-10,2.87-21.11,5.95-42.19,8.72-63.3.49-3.71,1.68-5.4,5.59-4.94a30.2,30.2,0,0,0,7.48,0c4.76-.64,6.6,1.08,7.22,6,2.83,22.45,6.09,44.85,9.18,67.27C134.73,363.61,134.78,364.92,135,367.16Zm-19.25-47.6h-1.35c-.39,4.49-.87,9-1.07,13.46,0,.74,1.19,1.53,1.84,2.29.64-.77,1.87-1.57,1.83-2.3C116.71,328.52,116.17,324,115.72,319.56Z"/><path class="cls-2" d="M158.65,336.79c13-2.29,13.24-2.07,13.23,9.78,0,2.5,0,5,0,7.5-.16,7.37-3.7,12.11-11,13.18a34.14,34.14,0,0,1-12.77-.71A10.13,10.13,0,0,1,140,356.29c-.12-18.66-.18-37.32.13-56a10.93,10.93,0,0,1,9.76-11c4.35-.65,9.2-1,13.25.27,3.1,1,6.75,4.44,7.56,7.49,1.43,5.33,1,11.2,1,16.84,0,.78-1.56,2.16-2.48,2.24-3.27.28-6.58.11-10.61.11,0-4.9.14-9.2-.09-13.47-.06-1.22-1.19-2.38-1.83-3.57-.8,1.19-2.28,2.38-2.3,3.58q-.24,25.25,0,50.49c0,1.22,1.44,2.44,2.21,3.65.69-1.32,1.9-2.61,2-4C158.79,347.65,158.65,342.34,158.65,336.79Z"/><path class="cls-1" d="M250,219.09c-4.65,4.14-9,8.22-13.64,12-.8.64-3.25.35-4.15-.42-15.2-13.14-39.72-13.91-56.17,0-.9.76-3.34,1-4.15.36-4.64-3.72-9-7.78-13.32-11.61C177.83,196.32,222,190.08,250,219.09Z"/><path class="cls-2" d="M318.82,298.93c-3.36,0-6.32.12-9.27,0s-4.29.86-4.19,4c.15,4.49.12,9,0,13.47-.09,3,1.06,4.36,4.1,4.09,1.15-.11,2.34.09,3.49,0,3.46-.39,5.13.6,5.08,4.58,0,3.7-1.1,5.27-4.86,4.79-1.31-.17-2.66.07-4-.05-2.81-.26-3.86,1-3.82,3.74.1,6.82.08,13.64,0,20.46,0,2.59,1.11,3.57,3.62,3.49,3.12-.11,6.25,0,9.69,0,.23,1.74.38,3,.58,4.25.69,4.29-.9,6-5.43,5.7-6.13-.36-12.3-.21-18.45-.05-3.11.08-4.46-.81-4.44-4.2q.15-34.93,0-69.86c0-3.42,1.38-4.23,4.47-4.14,5.81.17,11.64,0,17.46,0,6.6,0,6.61,0,6.37,6.56C319.2,296.47,319,297.28,318.82,298.93Z"/><path class="cls-2" d="M89,329.35a13,13,0,0,1-1.69.32c-10.17.42-10.17.42-10.18,10.4,0,4.5.1,9,0,13.5-.07,2.76,1,3.95,3.79,3.81,3.27-.15,6.55,0,9.93,0,.17,1.92.2,3.07.38,4.2.7,4.32-.93,6-5.43,5.74-6.32-.34-12.67-.22-19-.05-3,.09-4.18-1-4.18-4q.1-35.25,0-70.49c0-2.84,1.16-3.77,3.91-3.72,6.83.13,13.67.21,20.49,0,3.75-.13,4,1.91,3.92,4.71s.36,5.19-3.89,5.27c-9.94.19-9.94.4-9.94,10.5V311c0,8.87,0,8.87,8.72,9.37C90.09,320.62,90.53,321.81,89,329.35Z"/><path class="cls-2" d="M49.49,332.58c0,9.83-.14,19.67.06,29.49.08,3.82-1,5.33-5.07,5.21-10.94-.3-9.37,1-9.41-9.25-.06-17.83-.09-35.66.07-53.48,0-3.79-.52-6-5.06-5.61s-3.08-3.24-3.33-5.62c-.29-2.72.41-4.37,3.75-4.29q11.73.27,23.48,0c3.54-.07,3.71,2,3.56,4.5s.94,5.87-3.56,5.42c-4-.4-4.6,1.75-4.54,5.14C49.61,313.59,49.5,323.09,49.49,332.58Z"/><path class="cls-1" d="M220.12,253.83a16.08,16.08,0,0,1-16,16.26,16.21,16.21,0,1,1-.17-32.41A16.18,16.18,0,0,1,220.12,253.83Z"/></svg>