<svg id="Layer_1" data-name="Layer 1" xmlns="http://www.w3.org/2000/svg" viewBox="0 0 2421.42 1440.47"><defs><style>.cls-1{fill:#262c38;}.cls-2,.cls-4,.cls-6{fill:none;stroke-miterlimit:10;stroke-width:4px;}.cls-2{stroke:#ff0b53;}.cls-3{fill:#00f0e9;}.cls-4{stroke:#262c38;}.cls-5{fill:#ff0b53;}.cls-6{stroke:#00f0e9;}.cls-7{fill:red;}</style></defs><path class="cls-1" d="M340,346.21A115.73,115.73,0,1,1,224.26,230.48,115.73,115.73,0,0,1,340,346.21Z"/><path class="cls-2" d="M405.22,297.81A115.73,115.73,0,1,1,289.49,182.08,115.72,115.72,0,0,1,405.22,297.81Z"/><path class="cls-3" d="M1635.61,1217.78a115.73,115.73,0,1,1,115.72,115.73,115.73,115.73,0,0,1-115.72-115.73Z"/><path class="cls-4" d="M1570.38,1266.18a115.73,115.73,0,1,1,115.72,115.73,115.72,115.72,0,0,1-115.72-115.73Z"/><path class="cls-5" d="M2191.47,838.86,2070.82,959.51,1950.18,838.86l120.64-120.64,120.65,120.64Zm-305.38,0,184.73,184.74,184.73-184.74L2070.82,654.13,1886.09,838.86Z"/><path class="cls-3" d="M678,609.69,557.34,730.34,436.69,609.69,557.34,489.05,678,609.69Zm-305.39,0L557.34,794.43,742.08,609.69,557.34,425,372.6,609.69Z"/><polygon class="cls-1" points="1070.94 48.43 1004.55 114.82 938.17 48.43 888.62 97.98 955 164.36 888.62 230.75 938.17 280.29 1004.55 213.91 1070.94 280.29 1120.48 230.75 1054.1 164.36 1120.48 97.98 1070.94 48.43 1070.94 48.43"/><polygon class="cls-6" points="1070.94 2.83 1004.55 69.21 938.17 2.83 888.62 52.38 955 118.76 888.62 185.14 938.17 234.69 1004.55 168.31 1070.94 234.69 1120.48 185.14 1054.1 118.76 1120.48 52.38 1070.94 2.83 1070.94 2.83"/><polygon class="cls-5" points="605.42 1151.05 539.03 1217.44 472.65 1151.05 423.1 1200.6 489.49 1266.98 423.1 1333.37 472.65 1382.91 539.03 1316.53 605.42 1382.91 654.97 1333.37 588.58 1266.98 654.97 1200.6 605.42 1151.05 605.42 1151.05"/><polygon class="cls-4" points="605.42 1199.94 539.03 1266.32 472.65 1199.94 423.1 1249.49 489.49 1315.87 423.1 1382.25 472.65 1431.8 539.03 1365.42 605.42 1431.8 654.97 1382.25 588.58 1315.87 654.97 1249.49 605.42 1199.94 605.42 1199.94"/><path class="cls-1" d="M1492.72,129.94a9.81,9.81,0,1,1-9.81-9.82,9.81,9.81,0,0,1,9.81,9.82Z"/><path class="cls-1" d="M1557.69,129.94a9.81,9.81,0,1,1-9.81-9.82,9.81,9.81,0,0,1,9.81,9.82Z"/><path class="cls-1" d="M1622.66,129.94a9.81,9.81,0,1,1-9.81-9.82,9.81,9.81,0,0,1,9.81,9.82Z"/><path class="cls-1" d="M1687.63,129.94a9.81,9.81,0,1,1-9.81-9.82,9.81,9.81,0,0,1,9.81,9.82Z"/><path class="cls-1" d="M1752.6,129.94a9.82,9.82,0,1,1-9.81-9.82,9.81,9.81,0,0,1,9.81,9.82Z"/><path class="cls-1" d="M1817.57,129.94a9.82,9.82,0,1,1-9.81-9.82,9.81,9.81,0,0,1,9.81,9.82Z"/><path class="cls-1" d="M1882.54,129.94a9.82,9.82,0,1,1-9.81-9.82,9.82,9.82,0,0,1,9.81,9.82Z"/><path class="cls-1" d="M1947.51,129.94a9.82,9.82,0,1,1-9.82-9.82,9.82,9.82,0,0,1,9.82,9.82Z"/><path class="cls-1" d="M2012.48,129.94a9.82,9.82,0,1,1-9.82-9.82,9.82,9.82,0,0,1,9.82,9.82Z"/><path class="cls-1" d="M1525.64,181.37a9.82,9.82,0,1,1-9.81-9.81,9.81,9.81,0,0,1,9.81,9.81Z"/><path class="cls-1" d="M1590.61,181.37a9.82,9.82,0,1,1-9.81-9.81,9.81,9.81,0,0,1,9.81,9.81Z"/><path class="cls-1" d="M1655.58,181.37a9.82,9.82,0,1,1-9.82-9.81,9.82,9.82,0,0,1,9.82,9.81Z"/><path class="cls-1" d="M1720.54,181.37a9.81,9.81,0,1,1-9.81-9.81,9.81,9.81,0,0,1,9.81,9.81Z"/><path class="cls-1" d="M1785.51,181.37a9.81,9.81,0,1,1-9.81-9.81,9.81,9.81,0,0,1,9.81,9.81Z"/><path class="cls-1" d="M1850.48,181.37a9.81,9.81,0,1,1-9.81-9.81,9.81,9.81,0,0,1,9.81,9.81Z"/><path class="cls-1" d="M1915.45,181.37a9.81,9.81,0,1,1-9.81-9.81,9.81,9.81,0,0,1,9.81,9.81Z"/><path class="cls-1" d="M1980.42,181.37a9.81,9.81,0,1,1-9.81-9.81,9.81,9.81,0,0,1,9.81,9.81Z"/><path class="cls-1" d="M2045.39,181.37a9.81,9.81,0,1,1-9.81-9.81,9.81,9.81,0,0,1,9.81,9.81Z"/><path class="cls-3" d="M726,1027.32a9.81,9.81,0,1,1-9.81-9.81,9.81,9.81,0,0,1,9.81,9.81Z"/><path class="cls-3" d="M791,1027.32a9.81,9.81,0,1,1-9.81-9.81,9.81,9.81,0,0,1,9.81,9.81Z"/><path class="cls-3" d="M855.92,1027.32a9.81,9.81,0,1,1-9.81-9.81,9.81,9.81,0,0,1,9.81,9.81Z"/><path class="cls-3" d="M920.89,1027.32a9.81,9.81,0,1,1-9.81-9.81,9.81,9.81,0,0,1,9.81,9.81Z"/><path class="cls-3" d="M985.86,1027.32a9.82,9.82,0,1,1-9.81-9.81,9.81,9.81,0,0,1,9.81,9.81Z"/><path class="cls-3" d="M1050.83,1027.32a9.81,9.81,0,1,1-9.81-9.81,9.81,9.81,0,0,1,9.81,9.81Z"/><path class="cls-3" d="M1115.8,1027.32a9.82,9.82,0,1,1-9.81-9.81,9.81,9.81,0,0,1,9.81,9.81Z"/><path class="cls-3" d="M1180.77,1027.32a9.82,9.82,0,1,1-9.81-9.81,9.81,9.81,0,0,1,9.81,9.81Z"/><path class="cls-3" d="M1245.74,1027.32a9.82,9.82,0,1,1-9.82-9.81,9.82,9.82,0,0,1,9.82,9.81Z"/><path class="cls-3" d="M758.9,1078.75a9.82,9.82,0,1,1-9.81-9.81,9.82,9.82,0,0,1,9.81,9.81Z"/><path class="cls-3" d="M823.87,1078.75a9.82,9.82,0,1,1-9.82-9.81,9.82,9.82,0,0,1,9.82,9.81Z"/><path class="cls-3" d="M888.84,1078.75a9.82,9.82,0,1,1-9.81-9.81,9.82,9.82,0,0,1,9.81,9.81Z"/><path class="cls-3" d="M953.81,1078.75a9.82,9.82,0,1,1-9.82-9.81,9.82,9.82,0,0,1,9.82,9.81Z"/><path class="cls-3" d="M1018.77,1078.75a9.81,9.81,0,1,1-9.81-9.81,9.82,9.82,0,0,1,9.81,9.81Z"/><path class="cls-3" d="M1083.74,1078.75a9.81,9.81,0,1,1-9.81-9.81,9.82,9.82,0,0,1,9.81,9.81Z"/><path class="cls-3" d="M1148.71,1078.75a9.81,9.81,0,1,1-9.81-9.81,9.82,9.82,0,0,1,9.81,9.81Z"/><path class="cls-3" d="M1213.68,1078.75a9.81,9.81,0,1,1-9.81-9.81,9.82,9.82,0,0,1,9.81,9.81Z"/><path class="cls-3" d="M1278.65,1078.75a9.81,9.81,0,1,1-9.81-9.81,9.82,9.82,0,0,1,9.81,9.81Z"/><path class="cls-5" d="M2258.57,1227.59a9.82,9.82,0,1,1-9.83-9.81,9.82,9.82,0,0,1,9.83,9.81Z"/><path class="cls-5" d="M2323.53,1227.59a9.81,9.81,0,1,1-9.81-9.81,9.81,9.81,0,0,1,9.81,9.81Z"/><path class="cls-5" d="M2388.49,1227.59a9.81,9.81,0,1,1-9.81-9.81,9.81,9.81,0,0,1,9.81,9.81Z"/><path class="cls-5" d="M2291.47,1279a9.81,9.81,0,1,1-9.81-9.82,9.81,9.81,0,0,1,9.81,9.82Z"/><path class="cls-5" d="M2356.45,1279a9.82,9.82,0,1,1-9.83-9.82,9.82,9.82,0,0,1,9.83,9.82Z"/><path class="cls-5" d="M2421.42,1279a9.82,9.82,0,1,1-9.81-9.82,9.81,9.81,0,0,1,9.81,9.82Z"/><path class="cls-1" d="M51.68,1379.22a9.82,9.82,0,1,1-9.81-9.81,9.82,9.82,0,0,1,9.81,9.81Z"/><path class="cls-1" d="M116.65,1379.22a9.82,9.82,0,1,1-9.82-9.81,9.82,9.82,0,0,1,9.82,9.81Z"/><path class="cls-1" d="M181.62,1379.22a9.82,9.82,0,1,1-9.82-9.81,9.82,9.82,0,0,1,9.82,9.81Z"/><path class="cls-1" d="M246.59,1379.22a9.82,9.82,0,1,1-9.82-9.81,9.82,9.82,0,0,1,9.82,9.81Z"/><path class="cls-1" d="M19.62,1430.66a9.81,9.81,0,1,1-9.81-9.81,9.81,9.81,0,0,1,9.81,9.81Z"/><path class="cls-1" d="M84.59,1430.66a9.81,9.81,0,1,1-9.81-9.81,9.81,9.81,0,0,1,9.81,9.81Z"/><path class="cls-1" d="M149.56,1430.66a9.81,9.81,0,1,1-9.81-9.81,9.81,9.81,0,0,1,9.81,9.81Z"/><path class="cls-1" d="M214.53,1430.66a9.81,9.81,0,1,1-9.81-9.81,9.81,9.81,0,0,1,9.81,9.81Z"/><path class="cls-1" d="M279.5,1430.66a9.81,9.81,0,1,1-9.81-9.81,9.81,9.81,0,0,1,9.81,9.81Z"/><path class="cls-7" d="M1444.66,622.58a9.81,9.81,0,1,1,9.81,9.81,9.81,9.81,0,0,1-9.81-9.81Z"/><path class="cls-7" d="M1379.69,622.58a9.81,9.81,0,1,1,9.81,9.81,9.81,9.81,0,0,1-9.81-9.81Z"/><path class="cls-7" d="M1314.72,622.58a9.82,9.82,0,1,1,9.81,9.81,9.81,9.81,0,0,1-9.81-9.81Z"/><path class="cls-7" d="M1249.75,622.58a9.82,9.82,0,1,1,9.81,9.81,9.81,9.81,0,0,1-9.81-9.81Z"/><path class="cls-7" d="M1476.71,571.14a9.82,9.82,0,1,1,9.82,9.81,9.82,9.82,0,0,1-9.82-9.81Z"/><path class="cls-7" d="M1411.74,571.14a9.82,9.82,0,1,1,9.82,9.81,9.82,9.82,0,0,1-9.82-9.81Z"/><path class="cls-7" d="M1346.77,571.14a9.82,9.82,0,1,1,9.82,9.81,9.82,9.82,0,0,1-9.82-9.81Z"/><path class="cls-7" d="M1281.81,571.14a9.81,9.81,0,1,1,9.81,9.81,9.81,9.81,0,0,1-9.81-9.81Z"/><path class="cls-7" d="M1216.84,571.14a9.81,9.81,0,1,1,9.81,9.81,9.81,9.81,0,0,1-9.81-9.81Z"/></svg>