<?xml version="1.0" encoding="utf-8"?>
<!-- Generator: Adobe Illustrator 26.2.1, SVG Export Plug-In . SVG Version: 6.00 Build 0)  -->
<svg version="1.1" id="Layer_1" xmlns="http://www.w3.org/2000/svg" xmlns:xlink="http://www.w3.org/1999/xlink" x="0px" y="0px"
	 viewBox="0 0 2421.4 1440.5" style="enable-background:new 0 0 2421.4 1440.5;" xml:space="preserve">
<style type="text/css">
	.st0{opacity:0.8;fill:#262C38;enable-background:new    ;}
	.st1{opacity:0.8;fill:none;stroke:#FF0B53;stroke-width:4;stroke-miterlimit:10;enable-background:new    ;}
	.st2{opacity:0.8;fill:#00F0E9;enable-background:new    ;}
	.st3{opacity:0.8;fill:none;stroke:#262C38;stroke-width:4;stroke-miterlimit:10;enable-background:new    ;}
	.st4{opacity:0.8;fill:#FF0B53;enable-background:new    ;}
	.st5{opacity:0.8;fill:none;stroke:#00F0E9;stroke-width:4;stroke-miterlimit:10;enable-background:new    ;}
	.st6{opacity:0.8;fill:#FF0000;enable-background:new    ;}
</style>
<path class="st0" d="M340,346.2c0,63.9-51.8,115.7-115.7,115.7s-115.7-51.8-115.7-115.7s51.8-115.7,115.7-115.7
	C288.2,230.5,340,282.3,340,346.2L340,346.2z"/>
<path class="st1" d="M405.2,297.8c0,63.9-51.8,115.7-115.7,115.7s-115.7-51.8-115.7-115.7s51.8-115.7,115.7-115.7
	C353.4,182.1,405.2,233.9,405.2,297.8L405.2,297.8z"/>
<path class="st2" d="M1635.6,1217.8c0-63.9,51.8-115.7,115.7-115.7s115.7,51.8,115.7,115.7c0,63.9-51.8,115.7-115.7,115.7l0,0
	C1687.4,1333.5,1635.6,1281.7,1635.6,1217.8z"/>
<path class="st3" d="M1570.4,1266.2c0-63.9,51.8-115.7,115.7-115.7s115.7,51.8,115.7,115.7c0,63.9-51.8,115.7-115.7,115.7l0,0
	C1622.2,1381.9,1570.4,1330.1,1570.4,1266.2L1570.4,1266.2z"/>
<path class="st4" d="M2191.5,838.9l-120.6,120.7l-120.6-120.7l120.6-120.6L2191.5,838.9z M1886.1,838.9l184.7,184.7l184.7-184.7
	l-184.7-184.7L1886.1,838.9z"/>
<path class="st2" d="M678,609.7L557.3,730.3L436.7,609.7L557.3,489L678,609.7z M372.6,609.7l184.7,184.7L742,609.7L557.3,425
	L372.6,609.7L372.6,609.7z"/>
<polygon class="st0" points="1070.9,48.4 1004.5,114.8 938.2,48.4 888.6,98 955,164.4 888.6,230.8 938.2,280.3 1004.5,213.9 
	1070.9,280.3 1120.5,230.8 1054.1,164.4 1120.5,98 "/>
<polygon class="st5" points="1070.9,2.8 1004.5,69.2 938.2,2.8 888.6,52.4 955,118.8 888.6,185.1 938.2,234.7 1004.5,168.3 
	1070.9,234.7 1120.5,185.1 1054.1,118.8 1120.5,52.4 "/>
<polygon class="st4" points="605.4,1151.1 539,1217.4 472.6,1151.1 423.1,1200.6 489.5,1267 423.1,1333.4 472.6,1382.9 539,1316.5 
	605.4,1382.9 655,1333.4 588.6,1267 655,1200.6 "/>
<polygon class="st3" points="605.4,1199.9 539,1266.3 472.6,1199.9 423.1,1249.5 489.5,1315.9 423.1,1382.2 472.6,1431.8 
	539,1365.4 605.4,1431.8 655,1382.2 588.6,1315.9 655,1249.5 "/>
<path class="st0" d="M1492.7,129.9c0,5.4-4.4,9.8-9.8,9.8s-9.8-4.4-9.8-9.8c0-5.4,4.4-9.8,9.8-9.8
	C1488.3,120.1,1492.7,124.5,1492.7,129.9L1492.7,129.9z"/>
<path class="st0" d="M1557.7,129.9c0,5.4-4.4,9.8-9.8,9.8s-9.8-4.4-9.8-9.8c0-5.4,4.4-9.8,9.8-9.8
	C1553.3,120.1,1557.7,124.5,1557.7,129.9L1557.7,129.9z"/>
<path class="st0" d="M1622.7,129.9c0,5.4-4.4,9.8-9.8,9.8s-9.8-4.4-9.8-9.8c0-5.4,4.4-9.8,9.8-9.8
	C1618.3,120.1,1622.7,124.5,1622.7,129.9L1622.7,129.9z"/>
<path class="st0" d="M1687.6,129.9c0,5.4-4.4,9.8-9.8,9.8s-9.8-4.4-9.8-9.8c0-5.4,4.4-9.8,9.8-9.8
	C1683.2,120.1,1687.6,124.5,1687.6,129.9L1687.6,129.9z"/>
<path class="st0" d="M1752.6,129.9c0,5.4-4.4,9.8-9.8,9.8s-9.8-4.4-9.8-9.8c0-5.4,4.4-9.8,9.8-9.8l0,0
	C1748.2,120.1,1752.6,124.5,1752.6,129.9L1752.6,129.9z"/>
<path class="st0" d="M1817.6,129.9c0,5.4-4.4,9.8-9.8,9.8s-9.8-4.4-9.8-9.8c0-5.4,4.4-9.8,9.8-9.8l0,0
	C1813.2,120.1,1817.6,124.5,1817.6,129.9L1817.6,129.9z"/>
<path class="st0" d="M1882.5,129.9c0,5.4-4.4,9.8-9.8,9.8s-9.8-4.4-9.8-9.8c0-5.4,4.4-9.8,9.8-9.8l0,0
	C1878.1,120.1,1882.5,124.5,1882.5,129.9z"/>
<path class="st0" d="M1947.5,129.9c0,5.4-4.4,9.8-9.8,9.8s-9.8-4.4-9.8-9.8c0-5.4,4.4-9.8,9.8-9.8l0,0
	C1943.1,120.1,1947.5,124.5,1947.5,129.9z"/>
<path class="st0" d="M2012.5,129.9c0,5.4-4.4,9.8-9.8,9.8s-9.8-4.4-9.8-9.8c0-5.4,4.4-9.8,9.8-9.8l0,0
	C2008.1,120.1,2012.5,124.5,2012.5,129.9z"/>
<path class="st0" d="M1525.6,181.4c0,5.4-4.4,9.8-9.8,9.8s-9.8-4.4-9.8-9.8s4.4-9.8,9.8-9.8l0,0
	C1521.2,171.6,1525.6,176,1525.6,181.4L1525.6,181.4z"/>
<path class="st0" d="M1590.6,181.4c0,5.4-4.4,9.8-9.8,9.8s-9.8-4.4-9.8-9.8s4.4-9.8,9.8-9.8l0,0
	C1586.2,171.6,1590.6,176,1590.6,181.4L1590.6,181.4z"/>
<path class="st0" d="M1655.6,181.4c0,5.4-4.4,9.8-9.8,9.8s-9.8-4.4-9.8-9.8s4.4-9.8,9.8-9.8l0,0
	C1651.2,171.6,1655.6,176,1655.6,181.4z"/>
<path class="st0" d="M1720.5,181.4c0,5.4-4.4,9.8-9.8,9.8s-9.8-4.4-9.8-9.8c0-5.4,4.4-9.8,9.8-9.8
	C1716.1,171.6,1720.5,176,1720.5,181.4L1720.5,181.4z"/>
<path class="st0" d="M1785.5,181.4c0,5.4-4.4,9.8-9.8,9.8s-9.8-4.4-9.8-9.8c0-5.4,4.4-9.8,9.8-9.8
	C1781.1,171.6,1785.5,176,1785.5,181.4L1785.5,181.4z"/>
<path class="st0" d="M1850.5,181.4c0,5.4-4.4,9.8-9.8,9.8s-9.8-4.4-9.8-9.8c0-5.4,4.4-9.8,9.8-9.8
	C1846.1,171.6,1850.5,176,1850.5,181.4L1850.5,181.4z"/>
<path class="st0" d="M1915.4,181.4c0,5.4-4.4,9.8-9.8,9.8s-9.8-4.4-9.8-9.8c0-5.4,4.4-9.8,9.8-9.8
	C1911.1,171.6,1915.4,176,1915.4,181.4L1915.4,181.4z"/>
<path class="st0" d="M1980.4,181.4c0,5.4-4.4,9.8-9.8,9.8s-9.8-4.4-9.8-9.8c0-5.4,4.4-9.8,9.8-9.8
	C1976,171.6,1980.4,176,1980.4,181.4L1980.4,181.4z"/>
<path class="st0" d="M2045.4,181.4c0,5.4-4.4,9.8-9.8,9.8s-9.8-4.4-9.8-9.8c0-5.4,4.4-9.8,9.8-9.8
	C2041,171.6,2045.4,176,2045.4,181.4L2045.4,181.4z"/>
<path class="st2" d="M726,1027.3c0,5.4-4.4,9.8-9.8,9.8s-9.8-4.4-9.8-9.8s4.4-9.8,9.8-9.8l0,0C721.6,1017.5,726,1021.9,726,1027.3z"
	/>
<path class="st2" d="M791,1027.3c0,5.4-4.4,9.8-9.8,9.8s-9.8-4.4-9.8-9.8s4.4-9.8,9.8-9.8l0,0C786.6,1017.5,791,1021.9,791,1027.3z"
	/>
<path class="st2" d="M855.9,1027.3c0,5.4-4.4,9.8-9.8,9.8s-9.8-4.4-9.8-9.8s4.4-9.8,9.8-9.8l0,0
	C851.5,1017.5,855.9,1021.9,855.9,1027.3z"/>
<path class="st2" d="M920.9,1027.3c0,5.4-4.4,9.8-9.8,9.8s-9.8-4.4-9.8-9.8s4.4-9.8,9.8-9.8l0,0
	C916.5,1017.5,920.9,1021.9,920.9,1027.3z"/>
<path class="st2" d="M985.9,1027.3c0,5.4-4.4,9.8-9.8,9.8c-5.4,0-9.8-4.4-9.8-9.8s4.4-9.8,9.8-9.8l0,0
	C981.5,1017.5,985.9,1021.9,985.9,1027.3z"/>
<path class="st2" d="M1050.8,1027.3c0,5.4-4.4,9.8-9.8,9.8s-9.8-4.4-9.8-9.8s4.4-9.8,9.8-9.8
	C1046.4,1017.5,1050.8,1021.9,1050.8,1027.3L1050.8,1027.3z"/>
<path class="st2" d="M1115.8,1027.3c0,5.4-4.4,9.8-9.8,9.8s-9.8-4.4-9.8-9.8s4.4-9.8,9.8-9.8l0,0
	C1111.4,1017.5,1115.8,1021.9,1115.8,1027.3L1115.8,1027.3z"/>
<path class="st2" d="M1180.8,1027.3c0,5.4-4.4,9.8-9.8,9.8s-9.8-4.4-9.8-9.8s4.4-9.8,9.8-9.8l0,0
	C1176.4,1017.5,1180.8,1021.9,1180.8,1027.3L1180.8,1027.3z"/>
<path class="st2" d="M1245.7,1027.3c0,5.4-4.4,9.8-9.8,9.8s-9.8-4.4-9.8-9.8s4.4-9.8,9.8-9.8l0,0
	C1241.3,1017.5,1245.7,1021.9,1245.7,1027.3z"/>
<path class="st2" d="M758.9,1078.8c0,5.4-4.4,9.8-9.8,9.8s-9.8-4.4-9.8-9.8s4.4-9.8,9.8-9.8l0,0
	C754.5,1068.9,758.9,1073.3,758.9,1078.8z"/>
<path class="st2" d="M823.9,1078.8c0,5.4-4.4,9.8-9.8,9.8c-5.4,0-9.8-4.4-9.8-9.8s4.4-9.8,9.8-9.8l0,0
	C819.5,1068.9,823.9,1073.3,823.9,1078.8z"/>
<path class="st2" d="M888.8,1078.8c0,5.4-4.4,9.8-9.8,9.8s-9.8-4.4-9.8-9.8s4.4-9.8,9.8-9.8l0,0
	C884.4,1068.9,888.8,1073.3,888.8,1078.8z"/>
<path class="st2" d="M953.8,1078.8c0,5.4-4.4,9.8-9.8,9.8c-5.4,0-9.8-4.4-9.8-9.8s4.4-9.8,9.8-9.8l0,0
	C949.4,1068.9,953.8,1073.3,953.8,1078.8z"/>
<path class="st2" d="M1018.8,1078.8c0,5.4-4.4,9.8-9.8,9.8s-9.8-4.4-9.8-9.8s4.4-9.8,9.8-9.8
	C1014.4,1068.9,1018.8,1073.3,1018.8,1078.8z"/>
<path class="st2" d="M1083.7,1078.8c0,5.4-4.4,9.8-9.8,9.8s-9.8-4.4-9.8-9.8s4.4-9.8,9.8-9.8
	C1079.3,1068.9,1083.7,1073.3,1083.7,1078.8z"/>
<path class="st2" d="M1148.7,1078.8c0,5.4-4.4,9.8-9.8,9.8s-9.8-4.4-9.8-9.8s4.4-9.8,9.8-9.8
	C1144.3,1068.9,1148.7,1073.3,1148.7,1078.8z"/>
<path class="st2" d="M1213.7,1078.8c0,5.4-4.4,9.8-9.8,9.8s-9.8-4.4-9.8-9.8s4.4-9.8,9.8-9.8
	C1209.3,1068.9,1213.7,1073.3,1213.7,1078.8z"/>
<path class="st2" d="M1278.7,1078.8c0,5.4-4.4,9.8-9.8,9.8s-9.8-4.4-9.8-9.8s4.4-9.8,9.8-9.8
	C1274.3,1068.9,1278.6,1073.3,1278.7,1078.8z"/>
<path class="st4" d="M2258.6,1227.6c0,5.4-4.4,9.8-9.8,9.8s-9.8-4.4-9.8-9.8s4.4-9.8,9.8-9.8S2258.6,1222.2,2258.6,1227.6
	L2258.6,1227.6z"/>
<path class="st4" d="M2323.5,1227.6c0,5.4-4.4,9.8-9.8,9.8s-9.8-4.4-9.8-9.8s4.4-9.8,9.8-9.8S2323.5,1222.2,2323.5,1227.6
	L2323.5,1227.6z"/>
<path class="st4" d="M2388.5,1227.6c0,5.4-4.4,9.8-9.8,9.8s-9.8-4.4-9.8-9.8s4.4-9.8,9.8-9.8S2388.5,1222.2,2388.5,1227.6
	L2388.5,1227.6z"/>
<path class="st4" d="M2291.5,1279c0,5.4-4.4,9.8-9.8,9.8c-5.4,0-9.8-4.4-9.8-9.8s4.4-9.8,9.8-9.8S2291.5,1273.6,2291.5,1279
	L2291.5,1279z"/>
<path class="st4" d="M2356.4,1279c0,5.4-4.4,9.8-9.8,9.8c-5.4,0-9.8-4.4-9.8-9.8s4.4-9.8,9.8-9.8S2356.4,1273.6,2356.4,1279
	L2356.4,1279z"/>
<path class="st4" d="M2421.4,1279c0,5.4-4.4,9.8-9.8,9.8c-5.4,0-9.8-4.4-9.8-9.8s4.4-9.8,9.8-9.8l0,0
	C2417,1269.2,2421.4,1273.6,2421.4,1279L2421.4,1279z"/>
<path class="st0" d="M51.7,1379.2c0,5.4-4.4,9.8-9.8,9.8s-9.8-4.4-9.8-9.8s4.4-9.8,9.8-9.8l0,0C47.3,1369.4,51.7,1373.8,51.7,1379.2
	z"/>
<path class="st0" d="M116.7,1379.2c0,5.4-4.4,9.8-9.8,9.8s-9.8-4.4-9.8-9.8s4.4-9.8,9.8-9.8l0,0
	C112.2,1369.4,116.6,1373.8,116.7,1379.2z"/>
<path class="st0" d="M181.6,1379.2c0,5.4-4.4,9.8-9.8,9.8s-9.8-4.4-9.8-9.8s4.4-9.8,9.8-9.8l0,0
	C177.2,1369.4,181.6,1373.8,181.6,1379.2z"/>
<path class="st0" d="M246.6,1379.2c0,5.4-4.4,9.8-9.8,9.8s-9.8-4.4-9.8-9.8s4.4-9.8,9.8-9.8l0,0
	C242.2,1369.4,246.6,1373.8,246.6,1379.2z"/>
<path class="st0" d="M19.6,1430.7c0,5.4-4.4,9.8-9.8,9.8s-9.8-4.4-9.8-9.8s4.4-9.8,9.8-9.8C15.2,1420.8,19.6,1425.2,19.6,1430.7
	L19.6,1430.7z"/>
<path class="st0" d="M84.6,1430.7c0,5.4-4.4,9.8-9.8,9.8s-9.8-4.4-9.8-9.8s4.4-9.8,9.8-9.8C80.2,1420.8,84.6,1425.2,84.6,1430.7
	L84.6,1430.7z"/>
<path class="st0" d="M149.6,1430.7c0,5.4-4.4,9.8-9.8,9.8s-9.8-4.4-9.8-9.8s4.4-9.8,9.8-9.8C145.2,1420.8,149.6,1425.2,149.6,1430.7
	L149.6,1430.7z"/>
<path class="st0" d="M214.5,1430.7c0,5.4-4.4,9.8-9.8,9.8s-9.8-4.4-9.8-9.8s4.4-9.8,9.8-9.8C210.1,1420.8,214.5,1425.2,214.5,1430.7
	L214.5,1430.7z"/>
<path class="st0" d="M279.5,1430.7c0,5.4-4.4,9.8-9.8,9.8s-9.8-4.4-9.8-9.8s4.4-9.8,9.8-9.8C275.1,1420.8,279.5,1425.2,279.5,1430.7
	L279.5,1430.7z"/>
<path class="st6" d="M1444.7,622.6c0-5.4,4.4-9.8,9.8-9.8s9.8,4.4,9.8,9.8s-4.4,9.8-9.8,9.8C1449.1,632.4,1444.7,628,1444.7,622.6
	L1444.7,622.6z"/>
<path class="st6" d="M1379.7,622.6c0-5.4,4.4-9.8,9.8-9.8s9.8,4.4,9.8,9.8s-4.4,9.8-9.8,9.8C1384.1,632.4,1379.7,628,1379.7,622.6
	L1379.7,622.6z"/>
<path class="st6" d="M1314.7,622.6c0-5.4,4.4-9.8,9.8-9.8s9.8,4.4,9.8,9.8c0,5.4-4.4,9.8-9.8,9.8l0,0
	C1319.1,632.4,1314.7,628,1314.7,622.6L1314.7,622.6z"/>
<path class="st6" d="M1249.8,622.6c0-5.4,4.4-9.8,9.8-9.8s9.8,4.4,9.8,9.8c0,5.4-4.4,9.8-9.8,9.8l0,0
	C1254.1,632.4,1249.8,628,1249.8,622.6L1249.8,622.6z"/>
<path class="st6" d="M1476.7,571.1c0-5.4,4.4-9.8,9.8-9.8s9.8,4.4,9.8,9.8c0,5.4-4.4,9.8-9.8,9.8l0,0
	C1481.1,581,1476.7,576.6,1476.7,571.1z"/>
<path class="st6" d="M1411.7,571.1c0-5.4,4.4-9.8,9.8-9.8s9.8,4.4,9.8,9.8c0,5.4-4.4,9.8-9.8,9.8l0,0
	C1416.1,581,1411.7,576.6,1411.7,571.1z"/>
<path class="st6" d="M1346.8,571.1c0-5.4,4.4-9.8,9.8-9.8s9.8,4.4,9.8,9.8c0,5.4-4.4,9.8-9.8,9.8l0,0
	C1351.2,581,1346.8,576.6,1346.8,571.1z"/>
<path class="st6" d="M1281.8,571.1c0-5.4,4.4-9.8,9.8-9.8s9.8,4.4,9.8,9.8s-4.4,9.8-9.8,9.8C1286.2,581,1281.8,576.6,1281.8,571.1
	L1281.8,571.1z"/>
<path class="st6" d="M1216.8,571.1c0-5.4,4.4-9.8,9.8-9.8s9.8,4.4,9.8,9.8s-4.4,9.8-9.8,9.8C1221.2,581,1216.8,576.6,1216.8,571.1
	L1216.8,571.1z"/>
</svg>
